<svg width="44" height="44" viewBox="0 0 44 44" fill="none" xmlns="http://www.w3.org/2000/svg">
<path d="M17.5171 28.3219L13.5547 30.9635C12.8901 31.4066 12 30.9302 12 30.1315V18.4142C12 18.149 12.1054 17.8946 12.2929 17.7071L17.4903 12.5097C17.7947 12.2053 18.2597 12.1298 18.6447 12.3223L25.4809 15.7405C25.8019 15.901 26.1843 15.8772 26.4829 15.6781L30.4453 13.0365C31.1099 12.5934 32 13.0698 32 13.8685V27.4648C32 27.7992 31.8329 28.1114 31.5547 28.2969L26.4829 31.6781C26.1843 31.8772 25.8019 31.901 25.4809 31.7405L18.5191 28.2595C18.1981 28.099 17.8157 28.1228 17.5171 28.3219Z" stroke="#3B3B3B" stroke-width="2"/>
<path d="M18 12.5V28" stroke="#3B3B3B" stroke-width="2"/>
<path d="M26 16L26.0002 31.5" stroke="#3B3B3B" stroke-width="2"/>
</svg>
