<svg width="44" height="44" viewBox="0 0 44 44" fill="none" xmlns="http://www.w3.org/2000/svg">
<path d="M22.25 24C25.5809 24 27.8888 24.0528 29.543 25.707C30.3432 26.5072 30.5 27.2474 30.5 27.75C30.5 28.0148 30.4553 28.2341 30.4131 28.3818C30.3922 28.4549 30.3725 28.5088 30.3604 28.5391C30.3584 28.5439 30.357 28.5482 30.3555 28.5518C30.352 28.5583 30.3455 28.5715 30.335 28.5898C30.3138 28.6269 30.2788 28.6852 30.2305 28.7578C30.1326 28.9047 29.9858 29.1002 29.793 29.293C29.402 29.6839 28.8913 30 28.25 30H16.25C15.6087 30 15.098 29.6839 14.707 29.293C14.5143 29.1002 14.3674 28.9046 14.2695 28.7578C14.2212 28.6853 14.1862 28.6269 14.165 28.5898L14.1445 28.5518C14.143 28.5482 14.1416 28.5439 14.1396 28.5391C14.1275 28.5088 14.1078 28.4549 14.0869 28.3818C14.0447 28.2341 14 28.0148 14 27.75C14 27.2474 14.1568 26.5072 14.957 25.707C16.6112 24.0528 18.9191 24 22.25 24Z" stroke="#3B3B3B" stroke-width="2"/>
<path d="M22.25 14C23.9069 14 25.25 15.3431 25.25 17C25.25 18.6569 23.9069 20 22.25 20C20.5931 20 19.25 18.6569 19.25 17C19.25 15.3431 20.5931 14 22.25 14Z" stroke="#3B3B3B" stroke-width="2"/>
</svg>
