<svg width="44" height="44" viewBox="0 0 44 44" fill="none" xmlns="http://www.w3.org/2000/svg">
<path d="M21 13.5C25.1421 13.5 28.5 16.8579 28.5 21C28.5 25.1421 25.1421 28.5 21 28.5C16.8579 28.5 13.5 25.1421 13.5 21C13.5 16.8579 16.8579 13.5 21 13.5Z" stroke="#3B3B3B" stroke-width="2"/>
<path d="M30.7929 32.2071C31.1834 32.5976 31.8166 32.5976 32.2071 32.2071C32.5976 31.8166 32.5976 31.1834 32.2071 30.7929L31.5 31.5L30.7929 32.2071ZM26.5 26.5L25.7929 27.2071L30.7929 32.2071L31.5 31.5L32.2071 30.7929L27.2071 25.7929L26.5 26.5Z" fill="#3B3B3B"/>
</svg>
