<svg width="44" height="44" viewBox="0 0 44 44" fill="none" xmlns="http://www.w3.org/2000/svg">
<path d="M26 24V28" stroke="#3B3B3B" stroke-width="1.5" stroke-linecap="round"/>
<path d="M24 26H28" stroke="#3B3B3B" stroke-width="1.5" stroke-linecap="round"/>
<path d="M21 28V24.5C21 24.2239 20.7761 24 20.5 24H18.5C18.2239 24 18 24.2239 18 24.5V27.5C18 27.7761 17.7761 28 17.5 28H14.5C14.2239 28 14 27.7761 14 27.5V22.2071C14 22.0745 14.0527 21.9473 14.1464 21.8536L17.6836 18.3164C17.8637 18.1363 18.1505 18.1204 18.3495 18.2796L23 22" stroke="#3B3B3B" stroke-width="1.5" stroke-linecap="round"/>
<path d="M22 18V17.5C22 17.2239 22.2239 17 22.5 17H29.5C29.7761 17 30 17.2239 30 17.5V23" stroke="#3B3B3B" stroke-width="1.5" stroke-linecap="round"/>
<rect x="26" y="19" width="2" height="2" rx="0.5" fill="#3B3B3B"/>
</svg>
