<svg width="44" height="44" viewBox="0 0 44 44" fill="none" xmlns="http://www.w3.org/2000/svg">
<path d="M22 13C24.1375 13 25.8711 13.6789 27.0654 14.8418C28.2556 16.0006 29 17.727 29 20C29 20.8789 28.6855 21.9133 28.1172 23.041C27.5543 24.1579 26.7774 25.298 25.9355 26.3701C24.4793 28.2246 22.8783 29.8087 22 30.6377C21.1217 29.8087 19.5206 28.2245 18.0645 26.3701C17.2226 25.298 16.4457 24.1579 15.8828 23.041C15.3145 21.9133 15 20.8789 15 20C15 17.727 15.7444 16.0006 16.9346 14.8418C18.129 13.6789 19.8625 13 22 13Z" stroke="#3B3B3B" stroke-width="2"/>
<path d="M22 17C23.6236 17 24.9999 18.5185 25 20C25 21.4814 23.6237 23 22 23C20.3763 23 19 21.4814 19 20C19.0001 18.5186 20.3764 17 22 17Z" stroke="#3B3B3B" stroke-width="2"/>
</svg>
