<svg width="44" height="44" viewBox="0 0 44 44" fill="none" xmlns="http://www.w3.org/2000/svg">
<path d="M23.2197 16.5127C23.2387 16.5161 23.2531 16.5195 23.2627 16.5225C23.2723 16.5255 23.2766 16.5274 23.2764 16.5273C23.3895 16.5839 23.5618 16.7282 23.7793 16.9785C23.9878 17.2186 24.2064 17.5189 24.4189 17.8398C24.8437 18.4813 25.2207 19.17 25.416 19.54C25.5891 19.8675 25.9299 20.0799 26.3086 20.0801H28.5V20.5801H25.75L24.9736 19.5449L24.8779 19.4355C24.3725 18.9322 23.4462 19.0961 23.2568 19.8828C23.1057 20.5107 22.9385 21.3999 23.002 22.124C23.0767 22.9763 23.4941 23.8898 23.9092 24.6201C24.3316 25.3634 24.7869 25.9786 24.9941 26.2471C24.9969 26.2506 24.9984 26.2532 24.999 26.2549C24.9996 26.2565 25 26.2578 25 26.2588V31.0801H24.0586L24.4736 27.3418C24.5029 27.0782 24.4264 26.8135 24.2607 26.6064L22.9121 24.9199C22.4402 24.33 21.5095 24.4561 21.2119 25.1504L18.6699 31.0801H17.7168L20.9688 22.2529L20.9785 22.2275L20.9854 22.2012L21.793 18.9678C21.9709 18.2556 21.3468 17.6012 20.627 17.7451L19.249 18.0205C18.8334 18.1036 18.5152 18.4398 18.4551 18.8594L18.0664 21.5801H17.623L18.4326 17.9365C18.8966 17.738 19.9767 17.2909 21.043 16.9453C21.5802 16.7712 22.0991 16.6278 22.5273 16.5537C22.7416 16.5166 22.9204 16.499 23.0596 16.5C23.1282 16.5005 23.181 16.5058 23.2197 16.5127Z" fill="#3B3B3B" stroke="#3B3B3B" stroke-linecap="round"/>
<circle cx="24.5" cy="14.5" r="1.5" fill="#3B3B3B"/>
</svg>
