<svg width="44" height="44" viewBox="0 0 44 44" fill="none" xmlns="http://www.w3.org/2000/svg">
<path d="M27.3291 14.0059C27.7373 13.981 28.0274 14.0422 28.2773 14.1562C28.5417 14.277 28.8198 14.483 29.168 14.8311C29.5163 15.1794 29.723 15.4582 29.8438 15.7227C29.9578 15.9726 30.019 16.2627 29.9941 16.6709C29.9791 16.9147 29.7803 17.3275 29.4365 17.79C29.2834 17.996 29.13 18.1748 29.0146 18.3018C28.9577 18.3645 28.911 18.4132 28.8799 18.4453C28.8643 18.4613 28.8527 18.4734 28.8457 18.4805L28.8389 18.4873L28.8301 18.4951L17.9561 29.3691L15.0771 30.082L15.0605 30.0859L15.043 30.0908L13.4551 30.5439L13.9092 28.957L13.9141 28.9404L13.918 28.9229L14.6299 26.043L25.5049 15.1699L25.5127 15.1602C25.5139 15.1589 25.5166 15.1573 25.5195 15.1543C25.5266 15.1473 25.5387 15.1357 25.5547 15.1201C25.5868 15.0889 25.6363 15.0425 25.6992 14.9854C25.8262 14.87 26.004 14.7166 26.21 14.5635C26.6724 14.2198 27.0853 14.0209 27.3291 14.0059Z" stroke="#3B3B3B" stroke-width="2" stroke-linecap="round"/>
<mask id="path-2-inside-1_2060_15782" fill="white">
<path d="M14.5753 30.8388L13.1611 29.4246V30.8388L14.5753 30.8388Z"/>
</mask>
<path d="M14.5753 30.8388L13.1611 29.4246V30.8388L14.5753 30.8388Z" fill="#3B3B3B"/>
<path d="M13.1611 29.4246L13.8682 28.7175L12.1611 27.0103L12.1611 29.4246H13.1611ZM14.5753 30.8388L14.5753 31.8388L16.9896 31.8388L15.2825 30.1317L14.5753 30.8388ZM13.1611 30.8388L12.1611 30.8388L12.1611 31.8388L13.1611 31.8388L13.1611 30.8388ZM13.1611 29.4246L12.454 30.1317L13.8682 31.5459L14.5753 30.8388L15.2825 30.1317L13.8682 28.7175L13.1611 29.4246ZM14.5753 30.8388L14.5753 29.8388L13.1611 29.8388L13.1611 30.8388L13.1611 31.8388L14.5753 31.8388L14.5753 30.8388ZM13.1611 30.8388L14.1611 30.8388L14.1611 29.4246H13.1611H12.1611L12.1611 30.8388L13.1611 30.8388Z" fill="#3B3B3B" mask="url(#path-2-inside-1_2060_15782)"/>
</svg>
