<svg width="48" height="48" viewBox="0 0 48 48" fill="none" xmlns="http://www.w3.org/2000/svg">
<rect width="48" height="48" rx="12" fill="#6F9C46"/>
<rect x="22" y="8" width="4" height="32" rx="0.75" fill="#F6F9E8"/>
<rect x="11.55" y="13.0936" width="21.0056" height="8.4127" rx="0.75" fill="#F6F9E8"/>
<path d="M37.3917 17.1803C37.4711 17.2403 37.4711 17.3596 37.3917 17.4197L32.0617 21.4484C31.9629 21.5231 31.8212 21.4526 31.8212 21.3287V13.2713C31.8212 13.1474 31.9629 13.0769 32.0617 13.1516L37.3917 17.1803Z" fill="#F6F9E8"/>
<rect width="21.0056" height="8.4127" rx="0.75" transform="matrix(-1 0 0 1 35.55 26.1437)" fill="#F6F9E8"/>
<path d="M9.70836 30.2303C9.62896 30.2904 9.62896 30.4097 9.70836 30.4697L15.0384 34.4984C15.1372 34.5731 15.2789 34.5026 15.2789 34.3787V26.3213C15.2789 26.1974 15.1372 26.1269 15.0384 26.2016L9.70836 30.2303Z" fill="#F6F9E8"/>
</svg>
