<svg width="44" height="44" viewBox="0 0 44 44" fill="none" xmlns="http://www.w3.org/2000/svg">
<path d="M20 15C21.6569 15 23 16.3431 23 18C23 19.6569 21.6569 21 20 21C18.3431 21 17 19.6569 17 18C17 16.3431 18.3431 15 20 15Z" stroke="#3B3B3B" stroke-width="2"/>
<path d="M26 23C27.6569 23 29 24.3431 29 26C29 27.6569 27.6569 29 26 29C24.3431 29 23 27.6569 23 26C23 24.3431 24.3431 23 26 23Z" stroke="#3B3B3B" stroke-width="2"/>
<path d="M17 18H13" stroke="#3B3B3B" stroke-width="2" stroke-linecap="round"/>
<path d="M23 18H31" stroke="#3B3B3B" stroke-width="2" stroke-linecap="round"/>
<path d="M23 26H13" stroke="#3B3B3B" stroke-width="2" stroke-linecap="round"/>
<path d="M29 26H31" stroke="#3B3B3B" stroke-width="2" stroke-linecap="round"/>
</svg>
