<svg width="44" height="44" viewBox="0 0 44 44" fill="none" xmlns="http://www.w3.org/2000/svg">
<path d="M22 15.5166C22.3237 15.5788 23.0733 15.737 23.9014 16.0068C24.862 16.3199 25.7855 16.739 26.3213 17.2344C27.2556 18.0983 27.5381 19.0342 27.6494 20.2295C27.7085 20.8648 27.715 21.4979 27.75 22.2715C27.7838 23.0177 27.8443 23.836 28.0205 24.7002C28.3727 26.4271 29.3626 28.2624 30.127 29.5H13.873C14.6374 28.2624 15.6273 26.4271 15.9795 24.7002C16.1557 23.836 16.2162 23.0177 16.25 22.2715C16.285 21.4979 16.2915 20.8648 16.3506 20.2295C16.4619 19.0342 16.7444 18.0983 17.6787 17.2344C18.2145 16.739 19.138 16.3199 20.0986 16.0068C20.9267 15.737 21.6763 15.5788 22 15.5166Z" stroke="#3B3B3B" stroke-width="2" stroke-linecap="round"/>
<path d="M20 29.5L21.6464 31.1464C21.8417 31.3417 22.1583 31.3417 22.3536 31.1464L24 29.5" stroke="#3B3B3B" stroke-width="2" stroke-linecap="round"/>
<path d="M21 15.5L21.5257 13.923C21.6776 13.4672 22.3224 13.4672 22.4743 13.923L23 15.5" stroke="#3B3B3B" stroke-width="2" stroke-linecap="round"/>
</svg>
