<svg width="44" height="44" viewBox="0 0 44 44" fill="none" xmlns="http://www.w3.org/2000/svg">
<path d="M25.8082 24.884C25.5357 25.1116 25.3756 25.4312 25.376 25.7852C25.3756 26.1384 25.5357 26.4972 25.8082 26.7696C26.0806 27.0421 26.4394 27.2022 26.7926 27.2018C27.1466 27.2022 27.4661 27.0421 27.6938 26.7696C27.6938 26.7696 27.6938 26.7696 27.6938 26.7696C27.7748 26.6729 27.8558 26.5761 27.9369 26.4794C29.3955 24.738 30.854 22.9965 32.3126 21.2551C32.3937 21.1584 32.4747 21.0616 32.5557 20.9649C32.6599 20.8402 32.711 20.6717 32.7037 20.5026C32.6961 20.3331 32.6307 20.1767 32.5159 20.0619C32.4011 19.9471 32.2447 19.8817 32.0752 19.8741C31.906 19.8668 31.7376 19.9179 31.6129 20.0221C31.6129 20.0221 31.6129 20.0221 31.6129 20.0221C31.5162 20.1031 31.4194 20.1841 31.3227 20.2652C29.5812 21.7238 27.8398 23.1823 26.0984 24.6409C26.0017 24.7219 25.9049 24.803 25.8082 24.884Z" fill="#3B3B3B"/>
<path d="M24.8492 29.5856C25.1855 29.4494 25.4235 29.1982 25.4842 28.8488C25.5463 28.5017 25.426 28.0849 25.1765 27.7287C24.9271 27.3724 24.5766 27.1168 24.2291 27.0565C23.8801 26.994 23.5626 27.1318 23.3195 27.4013C23.3195 27.4013 23.3195 27.4013 23.3195 27.4013C23.3153 27.4178 23.2767 27.4571 23.2519 27.4865C22.7214 28.0643 22.0805 28.6243 21.4221 28.9693C21.3856 28.9881 21.3485 29.0062 21.3122 29.0233C21.1779 29.0777 21.0598 29.1966 20.981 29.3353C20.9023 29.4751 20.8692 29.6233 20.8921 29.7658C20.9149 29.9084 20.9927 30.0388 21.1111 30.147C21.2294 30.2541 21.3787 30.3301 21.5233 30.3398C21.5233 30.3398 21.5233 30.3398 21.5233 30.3398C21.5829 30.3415 21.6433 30.3417 21.7024 30.341C22.7733 30.3095 23.7202 30.0328 24.6742 29.663C24.7293 29.6402 24.7766 29.6224 24.8492 29.5856Z" fill="#3B3B3B"/>
<path fill-rule="evenodd" clip-rule="evenodd" d="M20.0843 13.999C21.0157 13.9991 21.9286 14.1831 22.9613 14.5273C24.4024 15.0077 25.5834 15.6236 26.3734 16.5C27.1893 17.4056 27.5341 18.5299 27.4144 19.8857C27.3365 20.7675 27.1983 21.6724 26.7308 22.4316C26.2402 23.2282 25.4453 23.7781 24.2455 24.0781C23.3101 24.312 22.6392 24.6278 21.7152 25.0898C21.5128 25.1912 21.4231 25.3144 21.3656 25.4756C21.2948 25.6741 21.2722 25.9346 21.264 26.3125C21.2498 26.9691 21.3112 28.075 20.5931 28.9238C19.6923 29.9884 18.5039 30.2309 17.3363 29.9199C16.2182 29.622 15.1224 28.8264 14.2005 27.8369C13.2704 26.8384 12.4653 25.5878 11.9476 24.293C11.4329 23.0056 11.1794 21.6156 11.43 20.3623C11.7451 18.7871 12.4467 17.5606 13.4632 16.6064C14.4696 15.662 15.7561 15.0108 17.2064 14.5273C18.2394 14.183 19.1528 13.9991 20.0843 13.999ZM14.7513 19.1602C14.015 19.1602 13.4175 19.7569 13.4173 20.4932C13.4173 21.2295 14.0149 21.8271 14.7513 21.8271C15.4875 21.8269 16.0843 21.2294 16.0843 20.4932C16.0842 19.7571 15.4874 19.1604 14.7513 19.1602ZM18.7513 16.4932C18.0149 16.4932 17.4173 17.0908 17.4173 17.8271C17.4175 18.5634 18.015 19.1602 18.7513 19.1602C19.4874 19.1599 20.0842 18.5632 20.0843 17.8271C20.0843 17.0909 19.4875 16.4934 18.7513 16.4932ZM24.0843 16.4932C23.3479 16.4932 22.7513 17.0908 22.7513 17.8271C22.7515 18.5634 23.3481 19.1602 24.0843 19.1602C24.8206 19.1601 25.4172 18.5634 25.4173 17.8271C25.4173 17.0908 24.8207 16.4932 24.0843 16.4932Z" fill="#3B3B3B"/>
</svg>
