<svg width="44" height="44" viewBox="0 0 44 44" fill="none" xmlns="http://www.w3.org/2000/svg">
<path d="M22 9.5C28.9036 9.5 34.5 15.0964 34.5 22C34.5 28.9036 28.9036 34.5 22 34.5C15.0964 34.5 9.5 28.9036 9.5 22C9.5 15.0964 15.0964 9.5 22 9.5Z" fill="#F5CBEB"/>
<path d="M22 9.5C28.9036 9.5 34.5 15.0964 34.5 22C34.5 28.9036 28.9036 34.5 22 34.5C15.0964 34.5 9.5 28.9036 9.5 22C9.5 15.0964 15.0964 9.5 22 9.5Z" stroke="#E7E7E7"/>
<path fill-rule="evenodd" clip-rule="evenodd" d="M20.524 15.9828C21.2224 15.9829 21.9076 16.1211 22.6822 16.3792C23.7626 16.7395 24.6485 17.2006 25.2408 17.8578C25.8525 18.5369 26.1117 19.3802 26.022 20.3968C25.9636 21.058 25.8598 21.7376 25.5093 22.307C25.1414 22.9042 24.5446 23.3173 23.6451 23.5423C22.9437 23.7177 22.4403 23.9538 21.7476 24.3001C21.5955 24.3762 21.5281 24.4691 21.4849 24.5902C21.4319 24.7391 21.4149 24.9348 21.4087 25.2181C21.3981 25.7106 21.4439 26.5399 20.9058 27.1761C20.2304 27.9743 19.3388 28.1561 18.4634 27.9232C17.6251 27.6999 16.8032 27.1035 16.1119 26.3617C15.4142 25.6128 14.8108 24.6737 14.4224 23.7025C14.0364 22.737 13.8459 21.6951 14.0337 20.7552C14.27 19.5738 14.7957 18.6535 15.5581 17.9378C16.3129 17.2296 17.2782 16.7418 18.3658 16.3792C19.1404 16.1211 19.8254 15.9828 20.524 15.9828ZM16.524 19.8529C15.9717 19.8529 15.524 20.3006 15.524 20.8529C15.524 21.4052 15.9717 21.8529 16.524 21.8529C17.076 21.8526 17.524 21.405 17.524 20.8529C17.524 20.3008 17.076 19.8532 16.524 19.8529ZM19.524 17.8529C18.9717 17.8529 18.524 18.3006 18.524 18.8529C18.524 19.4052 18.9717 19.8529 19.524 19.8529C20.0761 19.8527 20.524 19.405 20.524 18.8529C20.524 18.3007 20.0761 17.8531 19.524 17.8529ZM23.524 17.8529C22.9717 17.8529 22.524 18.3006 22.524 18.8529C22.524 19.4052 22.9717 19.8529 23.524 19.8529C24.0762 19.8528 24.524 19.4051 24.524 18.8529C24.524 18.3007 24.0762 17.853 23.524 17.8529Z" fill="#3B3B3B"/>
<path d="M25.3322 23.2929C25.1279 23.4636 25.0078 23.7033 25.0081 23.9688C25.0078 24.2337 25.1279 24.5028 25.3322 24.7071C25.5365 24.9114 25.8056 25.0315 26.0706 25.0312C26.3361 25.0315 26.5757 24.9114 26.7464 24.7071C26.8072 24.6345 26.868 24.562 26.9287 24.4894C28.0227 23.1834 29.1166 21.8773 30.2105 20.5712C30.2713 20.4987 30.3321 20.4261 30.3929 20.3536C30.471 20.26 30.5094 20.1337 30.5039 20.0068C30.4981 19.8797 30.4491 19.7624 30.363 19.6763C30.2769 19.5902 30.1596 19.5412 30.0325 19.5354C29.9056 19.53 29.7793 19.5683 29.6858 19.6464C29.6132 19.7072 29.5406 19.768 29.4681 19.8288C28.162 20.9227 26.8559 22.0166 25.5499 23.1106C25.4773 23.1713 25.4048 23.2321 25.3322 23.2929Z" fill="#3B3B3B"/>
<path d="M24.1369 27.6892C24.3891 27.587 24.5677 27.3986 24.6131 27.1366C24.6597 26.8762 24.5695 26.5637 24.3824 26.2965C24.1953 26.0293 23.9324 25.8376 23.6718 25.7924C23.4101 25.7455 23.1719 25.8489 22.9897 26.051C22.9897 26.051 22.9897 26.051 22.9897 26.051C22.9865 26.0633 22.9575 26.0928 22.9389 26.1149C22.541 26.5482 22.0604 26.9682 21.5665 27.227C21.5392 27.2411 21.5114 27.2547 21.4841 27.2675C21.3834 27.3083 21.2949 27.3974 21.2357 27.5015C21.1767 27.6063 21.1519 27.7175 21.169 27.8244C21.1862 27.9313 21.2445 28.0291 21.3333 28.1103C21.4221 28.1906 21.5341 28.2476 21.6425 28.2549C21.6425 28.2549 21.6425 28.2549 21.6425 28.2549C21.6872 28.2561 21.7324 28.2563 21.7768 28.2557C22.58 28.2321 23.2901 28.0246 24.0056 27.7472C24.0469 27.7301 24.0824 27.7168 24.1369 27.6892Z" fill="#3B3B3B"/>
</svg>
