<svg width="44" height="44" viewBox="0 0 44 44" fill="none" xmlns="http://www.w3.org/2000/svg">
<path d="M14.1779 29.3575C14.0138 29.34 13.8434 29.3699 13.6997 29.457C13.5561 29.5439 13.4516 29.6788 13.4081 29.836C13.3645 29.9933 13.3847 30.1627 13.4631 30.3111C13.5415 30.4597 13.6723 30.573 13.8221 30.6425C13.8221 30.6425 13.8221 30.6425 13.8221 30.6425C14.0806 30.7592 14.334 30.8678 14.5938 30.974C16.9191 31.9026 19.3073 32.6197 22 32.6667C22 32.6667 22 32.6667 22 32.6667C24.6927 32.6197 27.0809 31.9026 29.4062 30.974C29.666 30.8678 29.9194 30.7592 30.1779 30.6425C30.3277 30.573 30.4585 30.4597 30.5369 30.3111C30.6153 30.1627 30.6355 29.9933 30.5919 29.836C30.5484 29.6788 30.4439 29.5439 30.3003 29.457C30.1566 29.3699 29.9862 29.34 29.822 29.3575C29.822 29.3575 29.822 29.3575 29.822 29.3575C29.5648 29.3817 29.2905 29.4087 29.0217 29.4347C26.6155 29.6502 24.19 29.9699 22 30C22 30 22 30 22 30C19.81 29.9699 17.3845 29.6502 14.9783 29.4347C14.7095 29.4087 14.4352 29.3817 14.1779 29.3575Z" fill="#3B3B3B"/>
<path d="M19.3333 27.5483C16.6228 26.4641 15.7353 21.918 15.4557 19.5947C15.3652 18.8426 15.9642 18.215 16.7217 18.215H27.2783C28.0358 18.215 28.6349 18.8426 28.5443 19.5947C28.2647 21.918 27.3772 26.4641 24.6667 27.5483C22.7328 28.3219 21.2672 28.3219 19.3333 27.5483Z" fill="#3B3B3B" stroke="#3B3B3B" stroke-width="1.33333"/>
<path d="M21.2352 15.7633C21.2352 15.7633 22.4661 14.4713 22.5434 13.3138C22.5981 12.4953 21.9579 12.0174 22.1108 11.2248C22.2189 10.6643 22.7649 10 22.7649 10" stroke="#3B3B3B" stroke-width="1.33333" stroke-linecap="round"/>
<path d="M24.1695 16.25C24.1695 16.25 24.8026 16.041 25.0175 14.5659C25.2325 13.0907 25.8655 12.8817 25.8655 12.8817" stroke="#3B3B3B" stroke-width="1.33333" stroke-linecap="round"/>
<path d="M18.4368 16.3738C18.4368 16.3738 18.8673 16.2646 19.0794 15.2944C19.2915 14.3242 19.722 14.215 19.722 14.215" stroke="#3B3B3B" stroke-width="1.33333" stroke-linecap="round"/>
<path d="M28.6667 20.8817C28.6667 20.8817 30.9652 21.1104 31.3333 22.215C31.7015 23.3196 31.0109 24.304 30 24.8817C29.0958 25.3984 27.3333 24.8817 27.3333 24.8817" stroke="#3B3B3B" stroke-width="1.33333"/>
</svg>
