<svg width="44" height="44" viewBox="0 0 44 44" fill="none" xmlns="http://www.w3.org/2000/svg">
<path d="M22 9.5C28.9036 9.5 34.5 15.0964 34.5 22C34.5 28.9036 28.9036 34.5 22 34.5C15.0964 34.5 9.5 28.9036 9.5 22C9.5 15.0964 15.0964 9.5 22 9.5Z" fill="#F9BE83"/>
<path d="M22 9.5C28.9036 9.5 34.5 15.0964 34.5 22C34.5 28.9036 28.9036 34.5 22 34.5C15.0964 34.5 9.5 28.9036 9.5 22C9.5 15.0964 15.0964 9.5 22 9.5Z" stroke="#E7E7E7"/>
<path d="M16.1335 27.5181C16.0103 27.505 15.8825 27.5275 15.7748 27.5927C15.6671 27.6579 15.5887 27.7591 15.556 27.877C15.5234 27.9949 15.5385 28.1221 15.5974 28.2334C15.6561 28.3448 15.7542 28.4298 15.8665 28.4819C15.8665 28.4819 15.8665 28.4819 15.8665 28.4819C16.0605 28.5694 16.2505 28.6508 16.4453 28.7305C18.1893 29.427 19.9805 29.9648 22 30C22 30 22 30 22 30C24.0195 29.9648 25.8107 29.427 27.5547 28.7305C27.7495 28.6508 27.9395 28.5694 28.1335 28.4819C28.2458 28.4298 28.3439 28.3448 28.4026 28.2334C28.4615 28.1221 28.4766 27.9949 28.444 27.877C28.4113 27.7591 28.3329 27.6579 28.2252 27.5927C28.1175 27.5275 27.9897 27.505 27.8665 27.5181C27.8665 27.5181 27.8665 27.5181 27.8665 27.5181C27.6736 27.5363 27.4678 27.5565 27.2663 27.576C25.4616 27.7377 23.6425 27.9774 22 28C22 28 22 28 22 28C20.3575 27.9774 18.5384 27.7377 16.7337 27.576C16.5322 27.5565 16.3264 27.5363 16.1335 27.5181Z" fill="#3B3B3B"/>
<path d="M20 26.1613C17.9671 25.3481 17.3015 21.9385 17.0918 20.196C17.0239 19.6319 17.4731 19.1613 18.0413 19.1613H25.9587C26.5269 19.1613 26.9761 19.6319 26.9082 20.196C26.6985 21.9385 26.0329 25.3481 24 26.1613C22.5496 26.7414 21.4504 26.7414 20 26.1613Z" fill="#3B3B3B" stroke="#3B3B3B"/>
<path d="M21.4264 17.3225C21.4264 17.3225 22.3495 16.3534 22.4076 15.4853C22.4486 14.8715 21.9684 14.5131 22.0831 13.9186C22.1642 13.4982 22.5737 13 22.5737 13" stroke="#3B3B3B" stroke-linecap="round"/>
<path d="M23.6271 17.6875C23.6271 17.6875 24.1019 17.5307 24.2631 16.4244C24.4243 15.318 24.8991 15.1613 24.8991 15.1613" stroke="#3B3B3B" stroke-linecap="round"/>
<path d="M19.3276 17.7804C19.3276 17.7804 19.6505 17.6985 19.8095 16.9708C19.9686 16.2432 20.2915 16.1613 20.2915 16.1613" stroke="#3B3B3B" stroke-linecap="round"/>
<path d="M27 21.1613C27 21.1613 28.7239 21.3328 29 22.1613C29.2761 22.9897 28.7582 23.728 28 24.1613C27.3219 24.5488 26 24.1613 26 24.1613" stroke="#3B3B3B"/>
</svg>
