<svg width="44" height="44" viewBox="0 0 44 44" fill="none" xmlns="http://www.w3.org/2000/svg">
<path d="M24.9425 19H18.0575C17.223 19 16.7556 18.0383 17.2711 17.3822L20.7137 13.0008C21.1141 12.4912 21.8859 12.4912 22.2863 13.0008L25.7289 17.3822C26.2444 18.0383 25.777 19 24.9425 19Z" stroke="#3B3B3B" stroke-width="2"/>
<path d="M13 28V25C13 23.8954 13.8954 23 15 23H18C19.1046 23 20 23.8954 20 25V28C20 29.1046 19.1046 30 18 30H15C13.8954 30 13 29.1046 13 28Z" stroke="#3B3B3B" stroke-width="2"/>
<path d="M26.5 23C27.8807 23 29 24.1193 29 25.5C29 26.8807 27.8807 28 26.5 28C25.1193 28 24 26.8807 24 25.5C24 24.1193 25.1193 23 26.5 23Z" stroke="#3B3B3B" stroke-width="2"/>
<path d="M30.2929 30.7071C30.6834 31.0976 31.3166 31.0976 31.7071 30.7071C32.0976 30.3166 32.0976 29.6834 31.7071 29.2929L31 30L30.2929 30.7071ZM28 27L27.2929 27.7071L30.2929 30.7071L31 30L31.7071 29.2929L28.7071 26.2929L28 27Z" fill="#3B3B3B"/>
</svg>
