<svg width="44" height="44" viewBox="0 0 44 44" fill="none" xmlns="http://www.w3.org/2000/svg">
<path d="M22 9.5C28.9036 9.5 34.5 15.0964 34.5 22C34.5 28.9036 28.9036 34.5 22 34.5C15.0964 34.5 9.5 28.9036 9.5 22C9.5 15.0964 15.0964 9.5 22 9.5Z" fill="#D2B1FD"/>
<path d="M22 9.5C28.9036 9.5 34.5 15.0964 34.5 22C34.5 28.9036 28.9036 34.5 22 34.5C15.0964 34.5 9.5 28.9036 9.5 22C9.5 15.0964 15.0964 9.5 22 9.5Z" stroke="#E7E7E7"/>
<path d="M22 26C22.5988 26.5988 23.455 27.455 23.8219 27.8219C23.9343 27.9343 24.0925 27.986 24.2487 27.9568C24.8128 27.8512 26.2025 27.548 27 27C28.8937 25.6988 29.0328 21.9289 29.0165 20.5304C29.0131 20.2421 28.7586 20.029 28.4713 20.0524C27.8367 20.1041 26.7629 20.1552 26 20C24.9696 19.7904 23.5 19 23.5 19" stroke="#3B3B3B" stroke-linecap="round"/>
<path d="M26.7972 22.5059C26.7209 22.5231 26.6619 22.547 26.6166 22.5703C26.6947 22.5711 26.7859 22.5631 26.8871 22.5508C26.8784 22.5454 26.871 22.5388 26.8627 22.5342C26.8267 22.5142 26.8059 22.5077 26.7972 22.5059Z" stroke="#3B3B3B" stroke-linecap="round"/>
<path d="M24.4091 21.9919C24.4792 22.005 24.5162 22.0273 24.5351 22.0427C24.5422 22.0485 24.5481 22.0556 24.5536 22.0623C24.5085 22.0429 24.4575 22.02 24.4023 21.991C24.4044 21.9913 24.407 21.9915 24.4091 21.9919Z" stroke="#3B3B3B" stroke-linecap="round"/>
<path d="M24.8359 24.4721C24.8858 24.4894 25.0174 24.5838 25.2002 24.7993C24.8658 24.6679 24.5352 24.5935 24.2129 24.5522C24.251 24.5404 24.2887 24.5289 24.3262 24.519C24.6078 24.4446 24.7761 24.4515 24.8359 24.4721Z" stroke="#3B3B3B" stroke-linecap="round"/>
<path fill-rule="evenodd" clip-rule="evenodd" d="M20.2031 16.0164C20.6474 15.6679 21.3474 15.725 21.6777 16.2411L21.7392 16.3504L21.9668 16.8436C22.2127 17.397 22.5002 18.1191 22.7217 18.8934C23.013 19.9124 23.2103 21.0888 22.9892 22.1063C22.8112 22.9244 22.333 23.7769 21.8594 24.4754C21.3792 25.1834 20.8703 25.7817 20.5889 26.0975C20.3205 26.3975 19.8967 26.5006 19.5205 26.3543C19.1221 26.1993 18.3881 25.892 17.6396 25.4666C16.9024 25.0475 16.0926 24.4823 15.5947 23.7928C14.9243 22.8638 14.7163 21.5725 14.6826 20.4247C14.6485 19.259 14.7924 18.1448 14.8994 17.495L14.9248 17.3788C15.0848 16.8194 15.6892 16.5552 16.2031 16.7147C16.5065 16.8095 16.9046 16.9172 17.3096 16.9832C17.7216 17.0503 18.1077 17.0677 18.4033 17.0096C18.6747 16.9558 18.9972 16.8122 19.3281 16.619C19.6535 16.4289 19.9627 16.205 20.2031 16.0164ZM21.1308 22.4227L20.999 22.495C20.2797 22.9559 18.7549 23.0187 17.8476 23.0077L17.501 22.9998C16.6992 22.9708 18.831 24.1575 19.5 23.9989C20.5946 23.7373 21.6759 22.1834 21.1308 22.4227ZM17.1172 19.9422C16.5756 20.015 16.0628 20.8222 16.0566 20.8319C16.0566 20.8319 17.8185 21.0392 17.9971 20.5575L18.0088 20.5086C18.0612 20.1235 17.6621 19.8694 17.1172 19.9422ZM20 19.4998C19.4695 19.6311 19.305 20.2099 19.501 20.5008L19.5312 20.535C19.8833 20.8518 21.4788 20.0125 21.501 20.0008C21.501 20.0008 20.5312 19.3696 20 19.4998Z" fill="#3B3B3B"/>
</svg>
