<svg width="44" height="44" viewBox="0 0 44 44" fill="none" xmlns="http://www.w3.org/2000/svg">
<path d="M22 27.3333C22.7984 28.1317 23.9399 29.2733 24.4292 29.7626C24.579 29.9124 24.79 29.9813 24.9982 29.9423C25.7504 29.8016 27.6033 29.3974 28.6667 28.6667C31.1915 26.9317 31.3771 21.9052 31.3553 20.0405C31.3509 19.6561 31.0115 19.372 30.6284 19.4032C29.7823 19.4721 28.3506 19.5402 27.3333 19.3333C25.9594 19.0539 24 18 24 18" stroke="#3B3B3B" stroke-width="1.33333" stroke-linecap="round"/>
<path d="M28.3973 22.6745C28.2954 22.6974 28.2166 22.7293 28.1561 22.7604C28.2621 22.7614 28.3865 22.753 28.5243 22.736C28.5105 22.7272 28.4973 22.7189 28.4842 22.7116C28.4375 22.6856 28.4094 22.6772 28.3973 22.6745Z" stroke="#3B3B3B" stroke-width="1.33333" stroke-linecap="round"/>
<path d="M24.5497 22.3747C24.5509 22.3755 24.5507 22.3766 24.5507 22.3766H24.5497L24.5488 22.3786L24.5478 22.3796C24.5483 22.3789 24.5483 22.3767 24.5497 22.3747ZM25.2119 21.9889C25.306 22.0064 25.3557 22.0367 25.3808 22.0573C25.3916 22.0661 25.4001 22.0763 25.4081 22.0866C25.3462 22.0602 25.2763 22.0281 25.2001 21.988C25.204 21.9885 25.208 21.9882 25.2119 21.9889Z" stroke="#3B3B3B" stroke-width="1.33333" stroke-linecap="round"/>
<path d="M25.7816 25.2968C25.8482 25.32 26.022 25.446 26.265 25.7323C25.8197 25.5577 25.3797 25.4582 24.9505 25.4032C25.0015 25.3874 25.0518 25.3715 25.1019 25.3583C25.4778 25.2591 25.702 25.2692 25.7816 25.2968Z" stroke="#3B3B3B" stroke-width="1.33333" stroke-linecap="round"/>
<path fill-rule="evenodd" clip-rule="evenodd" d="M19.6048 14.0218C20.1974 13.5573 21.1306 13.6332 21.5707 14.3216L21.6517 14.4681L21.9554 15.1253C22.2833 15.8632 22.668 16.8253 22.9632 17.8577C23.3518 19.2164 23.6135 20.7852 23.3187 22.1419C23.0815 23.2331 22.4436 24.3694 21.8119 25.3011C21.1714 26.2457 20.4939 27.043 20.1185 27.4642C19.7609 27.8653 19.1959 28.0021 18.6937 27.8069C18.163 27.6004 17.185 27.1912 16.1859 26.6233C15.2025 26.0644 14.1235 25.3107 13.4593 24.3909C12.565 23.1521 12.2885 21.4315 12.2435 19.9007C12.1979 18.3456 12.3899 16.8598 12.5326 15.9934C12.6729 15.1419 13.5404 14.7248 14.2718 14.9534C14.6768 15.08 15.206 15.2239 15.7464 15.3118C16.2968 15.4013 16.8101 15.424 17.2044 15.346C17.567 15.2741 17.9958 15.0838 18.4378 14.8255C18.8727 14.5714 19.284 14.2735 19.6048 14.0218ZM18.6664 24.6663C20.2239 24.2945 21.7605 21.9587 20.6644 22.6614C19.7052 23.2762 17.6719 23.3598 16.4623 23.345L15.9994 23.3333C14.9317 23.2952 17.775 24.8782 18.6664 24.6663ZM16.6781 20.011C16.748 19.4976 16.216 19.1602 15.4896 19.2571C14.7697 19.3536 14.0879 20.4231 14.0755 20.4427C14.0755 20.4427 16.5789 20.7373 16.6781 20.011ZM21.3334 19.3333C21.3045 19.3146 20.0335 18.4952 19.3334 18.6673C18.6258 18.8419 18.4055 19.6122 18.6664 20.0003L18.7064 20.0472C19.1749 20.4711 21.3055 19.348 21.3334 19.3333Z" fill="#3B3B3B"/>
</svg>
