<svg width="44" height="44" viewBox="0 0 44 44" fill="none" xmlns="http://www.w3.org/2000/svg">
<path d="M22 9.5C28.9036 9.5 34.5 15.0964 34.5 22C34.5 28.9036 28.9036 34.5 22 34.5C15.0964 34.5 9.5 28.9036 9.5 22C9.5 15.0964 15.0964 9.5 22 9.5Z" fill="#9FC57D"/>
<path d="M22 9.5C28.9036 9.5 34.5 15.0964 34.5 22C34.5 28.9036 28.9036 34.5 22 34.5C15.0964 34.5 9.5 28.9036 9.5 22C9.5 15.0964 15.0964 9.5 22 9.5Z" stroke="#E7E7E7"/>
<path d="M22.4002 30H21.5998C21.2876 30 21.0505 29.7176 21.1004 29.4095C21.2464 28.5076 21.5 26.7594 21.5 25.5C21.5 24.2406 21.2464 22.4924 21.1004 21.5905C21.0505 21.2824 21.2876 21 21.5998 21H22.4002C22.7124 21 22.9495 21.2824 22.8996 21.5905C22.7536 22.4924 22.5 24.2406 22.5 25.5C22.5 26.7594 22.7536 28.5076 22.8996 29.4095C22.9495 29.7176 22.7124 30 22.4002 30Z" fill="#3B3B3B" stroke="#3B3B3B" stroke-linecap="round"/>
<circle cx="22" cy="18" r="3" fill="#3B3B3B"/>
<circle cx="19" cy="21" r="3" fill="#3B3B3B"/>
<circle cx="25" cy="21" r="3" fill="#3B3B3B"/>
</svg>
