<svg width="44" height="44" viewBox="0 0 44 44" fill="none" xmlns="http://www.w3.org/2000/svg">
<path d="M22.5336 32.6667H21.4664C21.0502 32.6667 20.734 32.2902 20.8005 31.8793C20.9951 30.6768 21.3333 28.3458 21.3333 26.6667C21.3333 24.9875 20.9951 22.6565 20.8005 21.4541C20.734 21.0432 21.0502 20.6667 21.4664 20.6667H22.5336C22.9498 20.6667 23.266 21.0432 23.1995 21.4541C23.0049 22.6565 22.6667 24.9875 22.6667 26.6667C22.6667 28.3458 23.0049 30.6768 23.1995 31.8793C23.266 32.2902 22.9498 32.6667 22.5336 32.6667Z" fill="#3B3B3B" stroke="#3B3B3B" stroke-width="1.33333" stroke-linecap="round"/>
<circle cx="22" cy="16.6667" r="4" fill="#3B3B3B"/>
<circle cx="18" cy="20.6667" r="4" fill="#3B3B3B"/>
<circle cx="26" cy="20.6667" r="4" fill="#3B3B3B"/>
</svg>
