<svg width="44" height="44" viewBox="0 0 44 44" fill="none" xmlns="http://www.w3.org/2000/svg">
<path d="M22 9.5C28.9036 9.5 34.5 15.0964 34.5 22C34.5 28.9036 28.9036 34.5 22 34.5C15.0964 34.5 9.5 28.9036 9.5 22C9.5 15.0964 15.0964 9.5 22 9.5Z" fill="#FCEC99"/>
<path d="M22 9.5C28.9036 9.5 34.5 15.0964 34.5 22C34.5 28.9036 28.9036 34.5 22 34.5C15.0964 34.5 9.5 28.9036 9.5 22C9.5 15.0964 15.0964 9.5 22 9.5Z" stroke="#E7E7E7"/>
<path d="M16.3106 21.2425L17.8106 27.2425C17.9219 27.6877 18.3219 28 18.7808 28H25.2192C25.6781 28 26.0781 27.6877 26.1894 27.2425L27.6894 21.2425C27.8472 20.6114 27.3698 20 26.7192 20H17.2808C16.6302 20 16.1528 20.6114 16.3106 21.2425Z" fill="#3B3B3B" stroke="#3B3B3B"/>
<path d="M20 22C20 22 18.0504 17.2997 20 16C21.2997 15.1335 22.7002 15.1335 24 16C25.9496 17.2997 24 22 24 22" stroke="#3B3B3B" stroke-linecap="round"/>
</svg>
