<svg width="44" height="44" viewBox="0 0 44 44" fill="none" xmlns="http://www.w3.org/2000/svg">
<path d="M22 18C18.8875 18 14.9187 20.6195 13.5178 21.6189C13.252 21.8085 13.252 22.1915 13.5178 22.3811C14.9187 23.3805 18.8875 26 22 26C25.1125 26 29.0813 23.3805 30.4822 22.3811C30.748 22.1915 30.748 21.8085 30.4822 21.6189C29.0813 20.6195 25.1125 18 22 18Z" stroke="#3B3B3B" stroke-width="2" stroke-linecap="round"/>
<path d="M18 22C18 19.7909 19.7909 18 22 18C24.2091 18 26 19.7909 26 22C26 24.2091 24.2091 26 22 26C19.7909 26 18 24.2091 18 22Z" stroke="#3B3B3B" stroke-linecap="round"/>
<circle cx="22" cy="22" r="2" fill="#3B3B3B"/>
</svg>
