<svg width="44" height="44" viewBox="0 0 44 44" fill="none" xmlns="http://www.w3.org/2000/svg">
<path d="M22.0004 15.0001C23.6151 15.0002 24.9041 15.5121 25.7846 16.3692C26.6609 17.2225 27.2221 18.5053 27.2221 20.2228C27.222 20.8574 26.9942 21.6258 26.56 22.4874C26.1311 23.3386 25.5357 24.213 24.8862 25.0401C23.842 26.3698 22.6998 27.5204 21.9995 28.1905C21.299 27.5203 20.1576 26.3695 19.1137 25.0401C18.4642 24.213 17.8688 23.3386 17.4399 22.4874C17.0057 21.6258 16.7779 20.8574 16.7778 20.2228C16.7778 18.5053 17.3389 17.2225 18.2153 16.3692C19.0958 15.512 20.3855 15.0001 22.0004 15.0001Z" stroke="#3B3B3B" stroke-width="2"/>
<path d="M22 18.5C22.8118 18.5 23.4999 19.2593 23.5 20C23.5 20.7407 22.8119 21.5 22 21.5C21.1881 21.5 20.5 20.7407 20.5 20C20.5001 19.2593 21.1882 18.5 22 18.5Z" fill="#3B3B3B" stroke="#3B3B3B"/>
</svg>
