<svg width="44" height="44" viewBox="0 0 44 44" fill="none" xmlns="http://www.w3.org/2000/svg">
<path d="M15 22C15 18.134 18.134 15 22 15C25.866 15 29 18.134 29 22C29 25.866 25.866 29 22 29C18.134 29 15 25.866 15 22Z" stroke="#3B3B3B" stroke-width="2" stroke-linecap="round"/>
<path d="M21.8098 18.5854C21.8697 18.4011 22.1303 18.4011 22.1902 18.5854L22.8532 20.6257C22.8799 20.7081 22.9567 20.7639 23.0434 20.7639H25.1887C25.3824 20.7639 25.463 21.0119 25.3062 21.1257L23.5706 22.3867C23.5005 22.4377 23.4712 22.5279 23.498 22.6103L24.1609 24.6507C24.2208 24.8349 24.0099 24.9881 23.8532 24.8743L22.1176 23.6133C22.0475 23.5623 21.9525 23.5623 21.8824 23.6133L20.1468 24.8743C19.9901 24.9881 19.7792 24.8349 19.8391 24.6507L20.502 22.6103C20.5288 22.5279 20.4995 22.4377 20.4294 22.3867L18.6938 21.1257C18.537 21.0119 18.6176 20.7639 18.8113 20.7639H20.9566C21.0433 20.7639 21.1201 20.7081 21.1468 20.6257L21.8098 18.5854Z" fill="#3B3B3B"/>
</svg>
